<svg width="364" height="83" viewBox="0 0 364 83" fill="none" xmlns="http://www.w3.org/2000/svg">
<g filter="url(#filter0_d)">
<path d="M51.3438 60.25H29.5469L23.5 73H5.82812L41.9688 4.75H57.0625L69.6719 73H52.9844L51.3438 60.25ZM35.5469 47.5469H49.7031L46.7031 24.0156L35.5469 47.5469ZM111.109 36.5781C109.453 36.3281 107.859 36.1719 106.328 36.1094C101.703 35.9844 98.1719 37.5781 95.7344 40.8906L90.0156 73H74.5938L83.4062 22.2812L97.7969 22.2344L96.625 28.8906C99.9375 23.7656 103.844 21.2031 108.344 21.2031C109.625 21.2031 111.219 21.4219 113.125 21.8594L111.109 36.5781ZM126.578 73H111.109L119.922 22.2812H135.391L126.578 73ZM121.281 9.48438C121.219 7.20312 122.016 5.29688 123.672 3.76562C125.359 2.23437 127.391 1.46875 129.766 1.46875C132.172 1.46875 134.172 2.15625 135.766 3.53125C137.391 4.90625 138.234 6.70313 138.297 8.92188C138.359 11.2344 137.562 13.1562 135.906 14.6875C134.25 16.1875 132.219 16.9375 129.812 16.9375C127.469 16.9375 125.469 16.2656 123.812 14.9219C122.188 13.5469 121.344 11.7344 121.281 9.48438ZM156.859 60.7188L179.078 60.8125L176.969 73H135.062L136.703 63.5312L163.375 34.5625L142.703 34.4688L144.812 22.2812H185.266L183.672 31.5156L156.859 60.7188ZM213.578 21.3438C218.109 21.4062 222.031 22.5469 225.344 24.7656C228.656 26.9531 231.078 30.0156 232.609 33.9531C234.172 37.8906 234.734 42.2656 234.297 47.0781L234.203 48.1094C233.328 55.8906 230.438 62.1719 225.531 66.9531C220.625 71.7344 214.562 74.0625 207.344 73.9375C202.844 73.875 198.953 72.7656 195.672 70.6094C192.391 68.4219 189.953 65.375 188.359 61.4688C186.797 57.5625 186.234 53.2188 186.672 48.4375C187.453 40.125 190.297 33.5 195.203 28.5625C200.141 23.625 206.266 21.2188 213.578 21.3438ZM202.094 48.4375L201.953 51.2031C201.516 58.1719 203.641 61.7188 208.328 61.8438C214.391 62.0312 217.906 57.1094 218.875 47.0781L219.062 42.8125C219.125 40 218.594 37.7656 217.469 36.1094C216.375 34.4219 214.75 33.5469 212.594 33.4844C209.75 33.3906 207.406 34.5625 205.562 37C203.75 39.4062 202.594 43.2188 202.094 48.4375ZM259.656 22.2344L258.578 28.3281C262.641 23.5156 267.531 21.1719 273.25 21.2969C277.938 21.3906 281.422 23.1406 283.703 26.5469C286.016 29.9219 286.859 34.7656 286.234 41.0781L280.891 73H265.422L270.812 40.9844C270.938 39.8906 270.969 38.8906 270.906 37.9844C270.688 35.0156 268.938 33.5312 265.656 33.5312C262.938 33.4688 260.453 34.6719 258.203 37.1406L251.875 73H236.453L245.266 22.2812L259.656 22.2344ZM318.344 73C317.906 71.7812 317.688 70.25 317.688 68.4062C314.219 72.2188 310.078 74.0625 305.266 73.9375C300.859 73.875 297.203 72.4062 294.297 69.5312C291.391 66.6562 290.031 63.1719 290.219 59.0781C290.375 53.5781 292.672 49.3594 297.109 46.4219C301.547 43.4531 307.609 41.9688 315.297 41.9688L320.453 42.0625L321.016 39.2031L321.203 36.7188C321.078 33.875 319.656 32.4062 316.938 32.3125C313.562 32.25 311.484 34.1094 310.703 37.8906L295.234 37.9375C295.391 34.5312 296.5 31.5781 298.562 29.0781C300.625 26.5469 303.422 24.6094 306.953 23.2656C310.516 21.8906 314.297 21.25 318.297 21.3438C322.141 21.4375 325.5 22.25 328.375 23.7812C331.281 25.2812 333.453 27.3906 334.891 30.1094C336.328 32.7969 336.875 35.9062 336.531 39.4375L332.734 63.2969L332.5 66.2031C332.375 68.5156 332.672 70.4844 333.391 72.1094L333.344 73H318.344ZM309.531 62.7812C312.688 62.9062 315.453 61.5156 317.828 58.6094L319.375 50.4531L315.391 50.4062C312.922 50.4688 310.797 51.2031 309.016 52.6094C307.234 53.9844 306.188 55.875 305.875 58.2812C305.719 59.5625 305.953 60.625 306.578 61.4688C307.234 62.2812 308.219 62.7188 309.531 62.7812ZM342.016 65.875C341.953 63.5 342.766 61.5312 344.453 59.9688C346.141 58.4062 348.156 57.625 350.5 57.625C352.812 57.625 354.781 58.3438 356.406 59.7812C358.031 61.1875 358.875 63.0312 358.938 65.3125C359 67.6562 358.203 69.625 356.547 71.2188C354.891 72.7812 352.859 73.5625 350.453 73.5625C348.078 73.5625 346.094 72.8438 344.5 71.4062C342.906 69.9688 342.078 68.125 342.016 65.875Z" fill="black"/>
<path d="M51.3438 60.25L52.3356 60.1224L52.2233 59.25H51.3438V60.25ZM29.5469 60.25V59.25H28.9144L28.6433 59.8215L29.5469 60.25ZM23.5 73V74H24.1325L24.4035 73.4285L23.5 73ZM5.82812 73L4.94438 72.532L4.16704 74H5.82812V73ZM41.9688 4.75V3.75H41.3667L41.085 4.28203L41.9688 4.75ZM57.0625 4.75L58.0459 4.56832L57.8947 3.75H57.0625V4.75ZM69.6719 73V74H70.8736L70.6552 72.8183L69.6719 73ZM52.9844 73L51.9926 73.1276L52.1048 74H52.9844V73ZM35.5469 47.5469L34.6433 47.1185L33.9661 48.5469H35.5469V47.5469ZM49.7031 47.5469V48.5469H50.8387L50.6951 47.4204L49.7031 47.5469ZM46.7031 24.0156L47.6951 23.8892L47.2631 20.5003L45.7995 23.5872L46.7031 24.0156ZM51.3438 59.25H29.5469V61.25H51.3438V59.25ZM28.6433 59.8215L22.5965 72.5715L24.4035 73.4285L30.4504 60.6785L28.6433 59.8215ZM23.5 72H5.82812V74H23.5V72ZM6.71187 73.468L42.8525 5.21797L41.085 4.28203L4.94438 72.532L6.71187 73.468ZM41.9688 5.75H57.0625V3.75H41.9688V5.75ZM56.0791 4.93168L68.6885 73.1817L70.6552 72.8183L58.0459 4.56832L56.0791 4.93168ZM69.6719 72H52.9844V74H69.6719V72ZM53.9762 72.8724L52.3356 60.1224L50.3519 60.3776L51.9926 73.1276L53.9762 72.8724ZM35.5469 48.5469H49.7031V46.5469H35.5469V48.5469ZM50.6951 47.4204L47.6951 23.8892L45.7112 24.1421L48.7112 47.6733L50.6951 47.4204ZM45.7995 23.5872L34.6433 47.1185L36.4505 47.9753L47.6067 24.444L45.7995 23.5872ZM111.109 36.5781L110.96 37.5669L111.963 37.7182L112.1 36.7138L111.109 36.5781ZM106.328 36.1094L106.369 35.1101L106.355 35.1097L106.328 36.1094ZM95.7344 40.8906L94.9289 40.2979L94.7907 40.4857L94.7499 40.7153L95.7344 40.8906ZM90.0156 73V74H90.8533L91.0001 73.1753L90.0156 73ZM74.5938 73L73.6085 72.8288L73.405 74H74.5938V73ZM83.4062 22.2812L83.403 21.2813L82.5645 21.284L82.421 22.1101L83.4062 22.2812ZM97.7969 22.2344L98.7817 22.4078L98.989 21.2305L97.7936 21.2344L97.7969 22.2344ZM96.625 28.8906L95.6401 28.7172L97.4648 29.4335L96.625 28.8906ZM113.125 21.8594L114.116 21.9951L114.24 21.0892L113.349 20.8847L113.125 21.8594ZM111.259 35.5893C109.57 35.3344 107.94 35.1743 106.369 35.1102L106.287 37.1085C107.779 37.1694 109.337 37.3219 110.96 37.5669L111.259 35.5893ZM106.355 35.1097C101.45 34.9772 97.5871 36.6855 94.9289 40.2979L96.5398 41.4833C98.7566 38.4707 101.956 36.9916 106.301 37.109L106.355 35.1097ZM94.7499 40.7153L89.0311 72.8247L91.0001 73.1753L96.7189 41.066L94.7499 40.7153ZM90.0156 72H74.5938V74H90.0156V72ZM75.579 73.1712L84.3915 22.4524L82.421 22.1101L73.6085 72.8288L75.579 73.1712ZM83.4095 23.2812L97.8001 23.2344L97.7936 21.2344L83.403 21.2813L83.4095 23.2812ZM96.812 22.061L95.6401 28.7172L97.6099 29.064L98.7817 22.4078L96.812 22.061ZM97.4648 29.4335C100.666 24.4811 104.298 22.2031 108.344 22.2031V20.2031C103.389 20.2031 99.2092 23.0502 95.7852 28.3478L97.4648 29.4335ZM108.344 22.2031C109.521 22.2031 111.034 22.4056 112.901 22.834L113.349 20.8847C111.403 20.4382 109.729 20.2031 108.344 20.2031V22.2031ZM112.134 21.7237L110.119 36.4424L112.1 36.7138L114.116 21.9951L112.134 21.7237ZM126.578 73V74H127.419L127.563 73.1712L126.578 73ZM111.109 73L110.124 72.8288L109.921 74H111.109V73ZM119.922 22.2812V21.2812H119.081L118.937 22.1101L119.922 22.2812ZM135.391 22.2812L136.376 22.4524L136.579 21.2812H135.391V22.2812ZM121.281 9.48438L120.282 9.51176L120.282 9.51214L121.281 9.48438ZM123.672 3.76562L123 3.02503L122.993 3.03135L123.672 3.76562ZM135.766 3.53125L135.112 4.28844L135.12 4.29464L135.766 3.53125ZM138.297 8.92188L139.297 8.89486L139.296 8.89372L138.297 8.92188ZM135.906 14.6875L136.578 15.4287L136.585 15.4218L135.906 14.6875ZM123.812 14.9219L123.167 15.6853L123.174 15.6919L123.182 15.6984L123.812 14.9219ZM126.578 72H111.109V74H126.578V72ZM112.095 73.1712L120.907 22.4524L118.937 22.1101L110.124 72.8288L112.095 73.1712ZM119.922 23.2812H135.391V21.2812H119.922V23.2812ZM134.405 22.1101L125.593 72.8288L127.563 73.1712L136.376 22.4524L134.405 22.1101ZM122.281 9.45699C122.226 7.46011 122.909 5.83276 124.351 4.4999L122.993 3.03135C121.122 4.76099 120.211 6.94614 120.282 9.51176L122.281 9.45699ZM124.344 4.50619C125.839 3.14948 127.628 2.46875 129.766 2.46875V0.46875C127.154 0.46875 124.88 1.31927 123 3.02506L124.344 4.50619ZM129.766 2.46875C131.969 2.46875 133.726 3.09236 135.112 4.28841L136.419 2.77409C134.618 1.22014 132.375 0.46875 129.766 0.46875V2.46875ZM135.12 4.29464C136.517 5.47726 137.242 7.00171 137.297 8.95003L139.296 8.89372C139.226 6.40454 138.264 4.33524 136.412 2.76786L135.12 4.29464ZM137.297 8.94889C137.352 10.9817 136.666 12.6233 135.227 13.9532L136.585 15.4218C138.459 13.6892 139.367 11.4871 139.297 8.89486L137.297 8.94889ZM135.235 13.9463C133.777 15.2663 131.991 15.9375 129.812 15.9375V17.9375C132.446 17.9375 134.723 17.1087 136.578 15.4287L135.235 13.9463ZM129.812 15.9375C127.674 15.9375 125.903 15.33 124.443 14.1453L123.182 15.6984C125.035 17.2013 127.264 17.9375 129.812 17.9375V15.9375ZM124.458 14.1585C123.064 12.9788 122.336 11.4407 122.281 9.45661L120.282 9.51214C120.352 12.028 121.311 14.1149 123.167 15.6853L124.458 14.1585ZM156.859 60.7188L156.123 60.0424L154.592 61.7092L156.855 61.7187L156.859 60.7188ZM179.078 60.8125L180.063 60.983L180.265 59.8175L179.082 59.8125L179.078 60.8125ZM176.969 73V74H177.811L177.954 73.1705L176.969 73ZM135.062 73L134.077 72.8293L133.874 74H135.062V73ZM136.703 63.5312L135.967 62.8539L135.768 63.0705L135.718 63.3605L136.703 63.5312ZM163.375 34.5625L164.111 35.2398L165.646 33.5728L163.38 33.5625L163.375 34.5625ZM142.703 34.4688L141.718 34.2982L141.516 35.4634L142.699 35.4687L142.703 34.4688ZM144.812 22.2812V21.2812H143.971L143.827 22.1107L144.812 22.2812ZM185.266 22.2812L186.251 22.4513L186.453 21.2812H185.266V22.2812ZM183.672 31.5156L184.408 32.1919L184.607 31.9754L184.657 31.6857L183.672 31.5156ZM156.855 61.7187L179.074 61.8125L179.082 59.8125L156.864 59.7188L156.855 61.7187ZM178.093 60.642L175.983 72.8295L177.954 73.1705L180.063 60.983L178.093 60.642ZM176.969 72H135.062V74H176.969V72ZM136.048 73.1707L137.688 63.702L135.718 63.3605L134.077 72.8293L136.048 73.1707ZM137.439 64.2086L164.111 35.2398L162.639 33.8852L135.967 62.8539L137.439 64.2086ZM163.38 33.5625L142.708 33.4688L142.699 35.4687L163.37 35.5625L163.38 33.5625ZM143.688 34.6393L145.798 22.4518L143.827 22.1107L141.718 34.2982L143.688 34.6393ZM144.812 23.2812H185.266V21.2812H144.812V23.2812ZM184.28 22.1112L182.686 31.3456L184.657 31.6857L186.251 22.4513L184.28 22.1112ZM182.935 30.8393L156.123 60.0424L157.596 61.3951L184.408 32.1919L182.935 30.8393ZM213.578 21.3438L213.561 22.3436L213.564 22.3437L213.578 21.3438ZM225.344 24.7656L224.787 25.5965L224.793 25.6001L225.344 24.7656ZM232.609 33.9531L231.677 34.3156L231.68 34.322L232.609 33.9531ZM234.203 48.1094L235.197 48.2211L235.198 48.2105L235.199 48.1999L234.203 48.1094ZM207.344 73.9375L207.361 72.9376L207.358 72.9376L207.344 73.9375ZM195.672 70.6094L195.117 71.4414L195.123 71.4451L195.672 70.6094ZM188.359 61.4688L187.431 61.8401L187.433 61.8465L188.359 61.4688ZM186.672 48.4375L185.676 48.3439L185.676 48.3464L186.672 48.4375ZM195.203 28.5625L194.496 27.8554L194.494 27.8576L195.203 28.5625ZM202.094 48.4375L201.098 48.3421L201.096 48.3644L201.095 48.3867L202.094 48.4375ZM201.953 51.2031L202.951 51.2658L202.952 51.2539L201.953 51.2031ZM208.328 61.8438L208.359 60.8442L208.355 60.8441L208.328 61.8438ZM218.875 47.0781L219.87 47.1743L219.873 47.1482L219.874 47.122L218.875 47.0781ZM219.062 42.8125L220.062 42.8564L220.062 42.8456L220.062 42.8347L219.062 42.8125ZM217.469 36.1094L216.63 36.6533L216.635 36.6623L216.642 36.6713L217.469 36.1094ZM212.594 33.4844L212.561 34.4838L212.565 34.484L212.594 33.4844ZM205.562 37L204.765 36.3967L204.764 36.3983L205.562 37ZM213.564 22.3437C217.929 22.4039 221.657 23.4996 224.787 25.5965L225.9 23.9348C222.406 21.5942 218.289 20.4086 213.592 20.3438L213.564 22.3437ZM224.793 25.6001C227.921 27.666 230.216 30.5579 231.677 34.3156L233.541 33.5907C231.94 29.4733 229.391 26.2403 225.895 23.9312L224.793 25.6001ZM231.68 34.322C233.177 38.0943 233.726 42.3092 233.301 46.9876L235.293 47.1687C235.742 42.2221 235.167 37.6869 233.539 33.5843L231.68 34.322ZM233.301 46.9876L233.207 48.0188L235.199 48.1999L235.293 47.1687L233.301 46.9876ZM233.209 47.9976C232.356 55.5839 229.551 61.6397 224.833 66.237L226.229 67.6693C231.324 62.704 234.3 56.1973 235.197 48.2211L233.209 47.9976ZM224.833 66.237C220.129 70.8212 214.329 73.0583 207.361 72.9376L207.326 74.9374C214.796 75.0667 221.121 72.6476 226.229 67.6693L224.833 66.237ZM207.358 72.9376C203.02 72.8773 199.321 71.8107 196.221 69.7737L195.123 71.4451C198.585 73.7206 202.668 74.8727 207.33 74.9374L207.358 72.9376ZM196.227 69.7773C193.123 67.7086 190.809 64.8257 189.285 61.091L187.433 61.8465C189.097 65.9243 191.658 69.1351 195.117 71.4414L196.227 69.7773ZM189.288 61.0974C187.792 57.3573 187.243 53.1749 187.668 48.5286L185.676 48.3464C185.226 53.2626 185.802 57.7677 187.431 61.8401L189.288 61.0974ZM187.667 48.5311C188.432 40.4014 191.201 34.0093 195.912 29.2674L194.494 27.8576C189.393 32.9907 186.475 39.8486 185.676 48.3439L187.667 48.5311ZM195.91 29.2696C200.646 24.5338 206.505 22.223 213.561 22.3436L213.595 20.3439C206.026 20.2145 199.635 22.7162 194.496 27.8554L195.91 29.2696ZM201.095 48.3867L200.954 51.1523L202.952 51.2539L203.092 48.4883L201.095 48.3867ZM200.955 51.1405C200.731 54.7021 201.145 57.5739 202.361 59.6038C203.625 61.7142 205.67 62.7732 208.301 62.8434L208.355 60.8441C206.299 60.7893 204.937 60.0124 204.077 58.5759C203.168 57.0589 202.737 54.6729 202.951 51.2658L200.955 51.1405ZM208.297 62.8433C211.661 62.9473 214.373 61.6078 216.325 58.8742C218.232 56.2046 219.379 52.2614 219.87 47.1743L217.88 46.982C217.402 51.9261 216.307 55.4595 214.698 57.7117C213.135 59.9001 211.058 60.9277 208.359 60.8442L208.297 62.8433ZM219.874 47.122L220.062 42.8564L218.063 42.7686L217.876 47.0342L219.874 47.122ZM220.062 42.8347C220.128 39.8959 219.577 37.4328 218.296 35.5475L216.642 36.6713C217.611 38.0985 218.122 40.1041 218.063 42.7903L220.062 42.8347ZM218.308 35.5655C217.021 33.5793 215.079 32.556 212.623 32.4848L212.565 34.484C214.421 34.5377 215.729 35.2644 216.63 36.6533L218.308 35.5655ZM212.627 32.4849C209.431 32.3796 206.788 33.7227 204.765 36.3967L206.36 37.6033C208.025 35.4023 210.069 34.4017 212.561 34.4838L212.627 32.4849ZM204.764 36.3983C202.785 39.0247 201.605 43.0587 201.098 48.3421L203.089 48.5329C203.583 43.3788 204.715 39.7878 206.361 37.6017L204.764 36.3983ZM259.656 22.2344L260.641 22.4086L260.849 21.2305L259.653 21.2344L259.656 22.2344ZM258.578 28.3281L257.593 28.1539L256.946 31.8115L259.342 28.9732L258.578 28.3281ZM273.25 21.2969L273.228 22.2966L273.23 22.2967L273.25 21.2969ZM283.703 26.5469L282.872 27.1034L282.878 27.1121L283.703 26.5469ZM286.234 41.0781L287.221 41.2432L287.226 41.2101L287.23 41.1767L286.234 41.0781ZM280.891 73V74H281.737L281.877 73.1651L280.891 73ZM265.422 73L264.436 72.834L264.239 74H265.422V73ZM270.812 40.9844L271.799 41.1504L271.803 41.1243L271.806 41.0979L270.812 40.9844ZM270.906 37.9844L271.904 37.9156L271.904 37.9109L270.906 37.9844ZM265.656 33.5312L265.633 34.531L265.645 34.5312H265.656V33.5312ZM258.203 37.1406L257.464 36.467L257.269 36.6813L257.218 36.9668L258.203 37.1406ZM251.875 73V74H252.714L252.86 73.1738L251.875 73ZM236.453 73L235.468 72.8288L235.264 74H236.453V73ZM245.266 22.2812L245.262 21.2813L244.424 21.284L244.28 22.1101L245.266 22.2812ZM258.672 22.0602L257.593 28.1539L259.563 28.5023L260.641 22.4086L258.672 22.0602ZM259.342 28.9732C263.232 24.365 267.845 22.179 273.228 22.2966L273.272 20.2971C267.218 20.1648 262.049 22.6662 257.814 27.6831L259.342 28.9732ZM273.23 22.2967C277.645 22.385 280.801 24.0105 282.872 27.1033L284.534 25.9904C282.043 22.2707 278.23 20.3963 273.27 20.2971L273.23 22.2967ZM282.878 27.1121C285.001 30.2108 285.853 34.7787 285.239 40.9796L287.23 41.1767C287.866 34.7525 287.03 29.6329 284.528 25.9816L282.878 27.1121ZM285.248 40.913L279.904 72.8349L281.877 73.1651L287.221 41.2432L285.248 40.913ZM280.891 72H265.422V74H280.891V72ZM266.408 73.166L271.799 41.1504L269.826 40.8183L264.436 72.834L266.408 73.166ZM271.806 41.0979C271.937 39.9559 271.971 38.8938 271.904 37.9156L269.909 38.0532C269.966 38.8875 269.938 39.8254 269.819 40.8708L271.806 41.0979ZM271.904 37.9109C271.781 36.2422 271.212 34.8449 270.077 33.8819C268.957 32.9322 267.434 32.5312 265.656 32.5312V34.5312C267.16 34.5312 268.152 34.8725 268.783 35.4071C269.398 35.9285 269.813 36.7578 269.909 38.0579L271.904 37.9109ZM265.679 32.5315C262.606 32.4609 259.861 33.8375 257.464 36.467L258.942 37.8142C261.046 35.5063 263.269 34.4766 265.633 34.531L265.679 32.5315ZM257.218 36.9668L250.89 72.8262L252.86 73.1738L259.188 37.3144L257.218 36.9668ZM251.875 72H236.453V74H251.875V72ZM237.438 73.1712L246.251 22.4524L244.28 22.1101L235.468 72.8288L237.438 73.1712ZM245.269 23.2812L259.66 23.2344L259.653 21.2344L245.262 21.2813L245.269 23.2812ZM318.344 73L317.403 73.3379L317.64 74H318.344V73ZM317.688 68.4062H318.688V65.8212L316.948 67.7333L317.688 68.4062ZM305.266 73.9375L305.292 72.9378L305.28 72.9376L305.266 73.9375ZM290.219 59.0781L291.218 59.1239L291.218 59.1152L291.218 59.1065L290.219 59.0781ZM297.109 46.4219L297.661 47.2557L297.665 47.253L297.109 46.4219ZM315.297 41.9688L315.315 40.9689L315.306 40.9688H315.297V41.9688ZM320.453 42.0625L320.435 43.0623L321.273 43.0776L321.434 42.2555L320.453 42.0625ZM321.016 39.2031L321.997 39.3961L322.008 39.3377L322.013 39.2784L321.016 39.2031ZM321.203 36.7188L322.2 36.794L322.205 36.7345L322.202 36.6748L321.203 36.7188ZM316.938 32.3125L316.972 31.3131L316.964 31.3128L316.956 31.3127L316.938 32.3125ZM310.703 37.8906L310.706 38.8906L311.518 38.8882L311.682 38.093L310.703 37.8906ZM295.234 37.9375L294.235 37.8917L294.187 38.9407L295.237 38.9375L295.234 37.9375ZM298.562 29.0781L299.334 29.7145L299.338 29.7098L298.562 29.0781ZM306.953 23.2656L307.309 24.2003L307.313 24.1985L306.953 23.2656ZM318.297 21.3438L318.321 20.344L318.32 20.344L318.297 21.3438ZM328.375 23.7812L327.905 24.6639L327.916 24.6699L328.375 23.7812ZM334.891 30.1094L334.007 30.5768L334.009 30.581L334.891 30.1094ZM336.531 39.4375L337.519 39.5947L337.524 39.5646L337.527 39.5344L336.531 39.4375ZM332.734 63.2969L331.747 63.1397L331.741 63.1779L331.738 63.2165L332.734 63.2969ZM332.5 66.2031L331.503 66.1227L331.502 66.1359L331.501 66.1491L332.5 66.2031ZM333.391 72.1094L334.389 72.1619L334.402 71.9234L334.305 71.7049L333.391 72.1094ZM333.344 73V74H334.293L334.342 73.0526L333.344 73ZM309.531 62.7812L309.484 63.7802L309.492 63.7805L309.531 62.7812ZM317.828 58.6094L318.602 59.2422L318.763 59.0454L318.811 58.7957L317.828 58.6094ZM319.375 50.4531L320.357 50.6395L320.58 49.4672L319.387 49.4532L319.375 50.4531ZM315.391 50.4062L315.402 49.4063L315.384 49.4061L315.365 49.4066L315.391 50.4062ZM309.016 52.6094L309.627 53.401L309.635 53.3943L309.016 52.6094ZM305.875 58.2812L304.883 58.1525L304.882 58.1602L305.875 58.2812ZM306.578 61.4688L305.775 62.064L305.787 62.0808L305.8 62.0971L306.578 61.4688ZM319.285 72.6621C318.899 71.5871 318.688 70.1796 318.688 68.4062H316.688C316.688 70.3204 316.913 71.9754 317.403 73.3379L319.285 72.6621ZM316.948 67.7333C313.659 71.348 309.791 73.0547 305.292 72.9378L305.24 74.9372C310.365 75.0703 314.778 73.0895 318.427 69.0792L316.948 67.7333ZM305.28 72.9376C301.11 72.8785 297.708 71.4986 295 68.8203L293.594 70.2422C296.699 73.3139 300.609 74.8715 305.251 74.9374L305.28 72.9376ZM295 68.8203C292.296 66.1449 291.043 62.9357 291.218 59.1239L289.22 59.0324C289.019 63.408 290.486 67.1676 293.594 70.2422L295 68.8203ZM291.218 59.1065C291.366 53.9187 293.506 50.0065 297.661 47.2557L296.557 45.588C291.838 48.7123 289.384 53.2375 289.219 59.0497L291.218 59.1065ZM297.665 47.253C301.881 44.4329 307.724 42.9688 315.297 42.9688V40.9688C307.494 40.9688 301.213 42.4734 296.553 45.5907L297.665 47.253ZM315.279 42.9686L320.435 43.0623L320.471 41.0627L315.315 40.9689L315.279 42.9686ZM321.434 42.2555L321.997 39.3961L320.034 39.0101L319.472 41.8695L321.434 42.2555ZM322.013 39.2784L322.2 36.794L320.206 36.6435L320.018 39.1279L322.013 39.2784ZM322.202 36.6748C322.133 35.1045 321.699 33.7573 320.761 32.7888C319.817 31.8136 318.502 31.3659 316.972 31.3131L316.903 33.3119C318.092 33.3529 318.847 33.6864 319.324 34.1799C319.809 34.6802 320.148 35.4892 320.204 36.7627L322.202 36.6748ZM316.956 31.3127C315.072 31.2778 313.446 31.7829 312.181 32.9149C310.931 34.0332 310.141 35.6668 309.724 37.6883L311.682 38.093C312.046 36.3332 312.686 35.1465 313.514 34.4054C314.327 33.678 315.428 33.2847 316.919 33.3123L316.956 31.3127ZM310.7 36.8906L295.231 36.9375L295.237 38.9375L310.706 38.8906L310.7 36.8906ZM296.233 37.9833C296.38 34.7813 297.417 32.0384 299.334 29.7145L297.791 28.4417C295.583 31.1178 294.401 34.2812 294.235 37.8917L296.233 37.9833ZM299.338 29.7098C301.273 27.3347 303.915 25.4915 307.309 24.2002L306.597 22.331C302.928 23.7272 299.977 25.759 297.787 28.4465L299.338 29.7098ZM307.313 24.1985C310.748 22.873 314.398 22.2526 318.273 22.3435L318.32 20.344C314.196 20.2474 310.284 20.9083 306.593 22.3327L307.313 24.1985ZM318.272 22.3435C321.989 22.4341 325.19 23.2179 327.905 24.6639L328.845 22.8986C325.81 21.2821 322.293 20.4409 318.321 20.344L318.272 22.3435ZM327.916 24.6699C330.653 26.0825 332.671 28.0503 334.007 30.5768L335.775 29.642C334.235 26.7309 331.909 24.48 328.834 22.8926L327.916 24.6699ZM334.009 30.581C335.339 33.0672 335.864 35.9729 335.536 39.3406L337.527 39.5344C337.886 35.8396 337.318 32.5265 335.772 29.6377L334.009 30.581ZM335.544 39.2803L331.747 63.1397L333.722 63.454L337.519 39.5947L335.544 39.2803ZM331.738 63.2165L331.503 66.1227L333.497 66.2835L333.731 63.3773L331.738 63.2165ZM331.501 66.1491C331.37 68.5729 331.677 70.7079 332.476 72.5139L334.305 71.7049C333.666 70.2609 333.38 68.4583 333.499 66.2571L331.501 66.1491ZM332.392 72.0568L332.345 72.9474L334.342 73.0526L334.389 72.1619L332.392 72.0568ZM333.344 72H318.344V74H333.344V72ZM309.492 63.7805C313.023 63.9203 316.071 62.34 318.602 59.2422L317.054 57.9766C314.835 60.6912 312.352 61.8922 309.571 61.782L309.492 63.7805ZM318.811 58.7957L320.357 50.6395L318.393 50.2668L316.846 58.423L318.811 58.7957ZM319.387 49.4532L315.402 49.4063L315.379 51.4062L319.363 51.4531L319.387 49.4532ZM315.365 49.4066C312.701 49.474 310.362 50.2723 308.396 51.8245L309.635 53.3943C311.232 52.134 313.143 51.4635 315.416 51.4059L315.365 49.4066ZM308.405 51.8178C306.396 53.3681 305.227 55.5063 304.883 58.1525L306.867 58.41C307.148 56.2437 308.073 54.6007 309.627 53.401L308.405 51.8178ZM304.882 58.1602C304.703 59.6342 304.964 60.9696 305.775 62.064L307.382 60.8735C306.942 60.2804 306.735 59.4908 306.868 58.4023L304.882 58.1602ZM305.8 62.0971C306.68 63.1866 307.965 63.7078 309.484 63.7801L309.579 61.7824C308.472 61.7297 307.789 61.3759 307.356 60.8404L305.8 62.0971ZM342.016 65.875L341.016 65.9013L341.016 65.9028L342.016 65.875ZM356.406 59.7812L355.744 60.5303L355.752 60.5374L356.406 59.7812ZM358.938 65.3125L359.937 65.2858L359.937 65.2851L358.938 65.3125ZM356.547 71.2188L357.233 71.9462L357.24 71.9393L356.547 71.2188ZM343.015 65.8487C342.96 63.7505 343.664 62.0623 345.133 60.7025L343.774 59.235C341.867 61.0002 340.946 63.2495 341.016 65.9013L343.015 65.8487ZM345.133 60.7025C346.631 59.3148 348.403 58.625 350.5 58.625V56.625C347.91 56.625 345.65 57.4977 343.774 59.235L345.133 60.7025ZM350.5 58.625C352.586 58.625 354.314 59.2657 355.744 60.5302L357.069 59.0323C355.248 57.4218 353.039 56.625 350.5 56.625V58.625ZM355.752 60.5374C357.15 61.7475 357.883 63.3197 357.938 65.3399L359.937 65.2851C359.867 62.7428 358.912 60.6275 357.061 59.0251L355.752 60.5374ZM357.938 65.3392C357.993 67.4083 357.303 69.1038 355.853 70.4982L357.24 71.9393C359.104 70.1462 360.007 67.9042 359.937 65.2858L357.938 65.3392ZM355.861 70.4914C354.401 71.8681 352.62 72.5625 350.453 72.5625V74.5625C353.099 74.5625 355.38 73.6944 357.233 71.9461L355.861 70.4914ZM350.453 72.5625C348.297 72.5625 346.56 71.9173 345.17 70.6637L343.83 72.1488C345.628 73.7702 347.859 74.5625 350.453 74.5625V72.5625ZM345.17 70.6637C343.79 69.4191 343.071 67.8388 343.015 65.8472L341.016 65.9028C341.086 68.4112 342.023 70.5184 343.83 72.1488L345.17 70.6637Z" fill="black"/>
</g>
<defs>
<filter id="filter0_d" x="0.167038" y="0.46875" width="363.774" height="82.4747" filterUnits="userSpaceOnUse" color-interpolation-filters="sRGB">
<feFlood flood-opacity="0" result="BackgroundImageFix"/>
<feColorMatrix in="SourceAlpha" type="matrix" values="0 0 0 0 0 0 0 0 0 0 0 0 0 0 0 0 0 0 127 0" result="hardAlpha"/>
<feOffset dy="4"/>
<feGaussianBlur stdDeviation="2"/>
<feComposite in2="hardAlpha" operator="out"/>
<feColorMatrix type="matrix" values="0 0 0 0 0 0 0 0 0 0 0 0 0 0 0 0 0 0 0.25 0"/>
<feBlend mode="normal" in2="BackgroundImageFix" result="effect1_dropShadow"/>
<feBlend mode="normal" in="SourceGraphic" in2="effect1_dropShadow" result="shape"/>
</filter>
</defs>
</svg>
