<svg width="175" height="100" viewBox="0 0 175 100" fill="none" xmlns="http://www.w3.org/2000/svg">
<g filter="url(#filter0_d)">
<path d="M43.7969 1.75H59.8281L51.8594 48.5781C50.8906 55.4219 47.9688 60.9062 43.0938 65.0312C38.25 69.125 32.5469 71.1094 25.9844 70.9844C19.3906 70.8594 14.2812 68.9219 10.6562 65.1719C7.0625 61.4219 5.35938 56.1406 5.54688 49.3281L21.7188 49.375V52.6094C21.8438 56.3281 23.6406 58.2344 27.1094 58.3281C31.7969 58.4219 34.7344 55 35.9219 48.0625L43.7969 1.75ZM87.1094 18.3438C91.6406 18.4062 95.5625 19.5469 98.875 21.7656C102.188 23.9531 104.609 27.0156 106.141 30.9531C107.703 34.8906 108.266 39.2656 107.828 44.0781L107.734 45.1094C106.859 52.8906 103.969 59.1719 99.0625 63.9531C94.1562 68.7344 88.0938 71.0625 80.875 70.9375C76.375 70.875 72.4844 69.7656 69.2031 67.6094C65.9219 65.4219 63.4844 62.375 61.8906 58.4688C60.3281 54.5625 59.7656 50.2188 60.2031 45.4375C60.9844 37.125 63.8281 30.5 68.7344 25.5625C73.6719 20.625 79.7969 18.2188 87.1094 18.3438ZM75.625 45.4375L75.4844 48.2031C75.0469 55.1719 77.1719 58.7188 81.8594 58.8438C87.9219 59.0312 91.4375 54.1094 92.4062 44.0781L92.5938 39.8125C92.6562 37 92.125 34.7656 91 33.1094C89.9062 31.4219 88.2812 30.5469 86.125 30.4844C83.2812 30.3906 80.9375 31.5625 79.0938 34C77.2812 36.4062 76.125 40.2188 75.625 45.4375ZM132.859 47.6875L145.984 19.2812H163L133.281 77.5938C131.062 82.1875 128.5 85.5 125.594 87.5312C122.719 89.5938 119.281 90.625 115.281 90.625C113.5 90.625 111.234 90.2812 108.484 89.5938L109.656 78.2969H111.438C113.344 78.2969 115.016 77.9844 116.453 77.3594C117.891 76.7656 119.094 75.5938 120.062 73.8438L122.266 69.625L114.156 19.2812H130.094L132.859 47.6875ZM152.828 62.875C152.766 60.5 153.578 58.5312 155.266 56.9688C156.953 55.4062 158.969 54.625 161.312 54.625C163.625 54.625 165.594 55.3438 167.219 56.7812C168.844 58.1875 169.688 60.0312 169.75 62.3125C169.812 64.6562 169.016 66.625 167.359 68.2188C165.703 69.7812 163.672 70.5625 161.266 70.5625C158.891 70.5625 156.906 69.8438 155.312 68.4062C153.719 66.9688 152.891 65.125 152.828 62.875Z" fill="black"/>
<path d="M43.7969 1.75V0.75H42.9526L42.811 1.58237L43.7969 1.75ZM59.8281 1.75L60.814 1.91776L61.0127 0.75H59.8281V1.75ZM51.8594 48.5781L50.8735 48.4104L50.8712 48.4241L50.8692 48.438L51.8594 48.5781ZM43.0938 65.0312L43.7393 65.795L43.7397 65.7946L43.0938 65.0312ZM25.9844 70.9844L26.0034 69.9846L26.0033 69.9846L25.9844 70.9844ZM10.6562 65.1719L9.93426 65.8638L9.93726 65.8669L10.6562 65.1719ZM5.54688 49.3281L5.54977 48.3281L4.5741 48.3253L4.54725 49.3006L5.54688 49.3281ZM21.7188 49.375H22.7188V48.3779L21.7216 48.375L21.7188 49.375ZM21.7188 52.6094H20.7188V52.6262L20.7193 52.643L21.7188 52.6094ZM27.1094 58.3281L27.0824 59.3278L27.0894 59.3279L27.1094 58.3281ZM35.9219 48.0625L36.9075 48.2312L36.9077 48.2301L35.9219 48.0625ZM43.7969 2.75H59.8281V0.75H43.7969V2.75ZM58.8423 1.58224L50.8735 48.4104L52.8452 48.7459L60.814 1.91776L58.8423 1.58224ZM50.8692 48.438C49.9318 55.0605 47.1194 60.315 42.4478 64.2679L43.7397 65.7946C48.8181 61.4975 51.8494 55.7833 52.8495 48.7183L50.8692 48.438ZM42.4482 64.2675C37.797 68.1986 32.3324 70.1051 26.0034 69.9846L25.9653 71.9842C32.7614 72.1136 38.703 70.0514 43.7393 65.795L42.4482 64.2675ZM26.0033 69.9846C19.6005 69.8632 14.7709 67.9896 11.3752 64.4769L9.93726 65.8669C13.7916 69.8541 19.1807 71.8556 25.9654 71.9842L26.0033 69.9846ZM11.3782 64.48C8.022 60.9778 6.36396 55.9877 6.5465 49.3556L4.54725 49.3006C4.35479 56.2936 6.103 61.8659 9.93426 65.8638L11.3782 64.48ZM5.54398 50.3281L21.7159 50.375L21.7216 48.375L5.54977 48.3281L5.54398 50.3281ZM20.7188 49.375V52.6094H22.7188V49.375H20.7188ZM20.7193 52.643C20.7866 54.6443 21.3086 56.3218 22.4325 57.514C23.5668 58.7174 25.1715 59.2761 27.0824 59.3278L27.1364 57.3285C25.5785 57.2864 24.5504 56.8451 23.8878 56.1422C23.2148 55.4282 22.7759 54.2932 22.7182 52.5758L20.7193 52.643ZM27.0894 59.3279C29.7181 59.3805 31.9149 58.4311 33.5869 56.4834C35.2221 54.5785 36.2989 51.7869 36.9075 48.2312L34.9362 47.8938C34.3573 51.2756 33.3716 53.6636 32.0694 55.1807C30.8039 56.6549 29.1882 57.3695 27.1294 57.3283L27.0894 59.3279ZM36.9077 48.2301L44.7827 1.91763L42.811 1.58237L34.936 47.8949L36.9077 48.2301ZM87.1094 18.3438L87.0923 19.3436L87.0956 19.3437L87.1094 18.3438ZM98.875 21.7656L98.3185 22.5965L98.3239 22.6001L98.875 21.7656ZM106.141 30.9531L105.209 31.3156L105.211 31.322L106.141 30.9531ZM107.734 45.1094L108.728 45.2211L108.729 45.2105L108.73 45.1999L107.734 45.1094ZM80.875 70.9375L80.8923 69.9376L80.8889 69.9376L80.875 70.9375ZM69.2031 67.6094L68.6484 68.4414L68.6539 68.4451L69.2031 67.6094ZM61.8906 58.4688L60.9621 58.8401L60.9647 58.8465L61.8906 58.4688ZM60.2031 45.4375L59.2075 45.3439L59.2073 45.3464L60.2031 45.4375ZM68.7344 25.5625L68.0273 24.8554L68.025 24.8576L68.7344 25.5625ZM75.625 45.4375L74.6296 45.3421L74.6274 45.3644L74.6263 45.3867L75.625 45.4375ZM75.4844 48.2031L76.4825 48.2658L76.4831 48.2539L75.4844 48.2031ZM81.8594 58.8438L81.8903 57.8442L81.886 57.8441L81.8594 58.8438ZM92.4062 44.0781L93.4016 44.1743L93.4041 44.1482L93.4053 44.122L92.4062 44.0781ZM92.5938 39.8125L93.5928 39.8564L93.5933 39.8456L93.5935 39.8347L92.5938 39.8125ZM91 33.1094L90.1608 33.6533L90.1667 33.6623L90.1728 33.6713L91 33.1094ZM86.125 30.4844L86.0921 31.4838L86.096 31.484L86.125 30.4844ZM79.0938 34L78.2962 33.3967L78.295 33.3983L79.0938 34ZM87.0956 19.3437C91.4606 19.4039 95.1879 20.4996 98.3185 22.5965L99.4315 20.9348C95.9371 18.5942 91.8207 17.4086 87.1232 17.3438L87.0956 19.3437ZM98.3239 22.6001C101.452 24.666 103.747 27.5579 105.209 31.3156L107.073 30.5907C105.471 26.4733 102.923 23.2403 99.4261 20.9312L98.3239 22.6001ZM105.211 31.322C106.708 35.0943 107.258 39.3092 106.832 43.9876L108.824 44.1687C109.274 39.2221 108.698 34.6869 107.07 30.5843L105.211 31.322ZM106.832 43.9876L106.738 45.0188L108.73 45.1999L108.824 44.1687L106.832 43.9876ZM106.741 44.9976C105.888 52.5839 103.082 58.6397 98.3646 63.237L99.7604 64.6693C104.856 59.704 107.831 53.1973 108.728 45.2211L106.741 44.9976ZM98.3646 63.237C93.6605 67.8212 87.8604 70.0583 80.8923 69.9376L80.8577 71.9374C88.3271 72.0667 94.652 69.6476 99.7604 64.6693L98.3646 63.237ZM80.8889 69.9376C76.5508 69.8773 72.8521 68.8107 69.7523 66.7737L68.6539 68.4451C72.1166 70.7206 76.1992 71.8727 80.8611 71.9374L80.8889 69.9376ZM69.7578 66.7773C66.6547 64.7086 64.3403 61.8257 62.8165 58.091L60.9647 58.8465C62.6285 62.9243 65.189 66.1351 68.6484 68.4414L69.7578 66.7773ZM62.8191 58.0974C61.3231 54.3573 60.7738 50.1749 61.199 45.5286L59.2073 45.3464C58.7574 50.2626 59.3332 54.7677 60.9621 58.8401L62.8191 58.0974ZM61.1987 45.5311C61.9628 37.4014 64.7318 31.0093 69.4437 26.2674L68.025 24.8576C62.9244 29.9907 60.0059 36.8486 59.2075 45.3439L61.1987 45.5311ZM69.4415 26.2696C74.1773 21.5338 80.0365 19.223 87.0923 19.3436L87.1265 17.3439C79.5572 17.2145 73.1664 19.7162 68.0273 24.8554L69.4415 26.2696ZM74.6263 45.3867L74.4857 48.1523L76.4831 48.2539L76.6237 45.4883L74.6263 45.3867ZM74.4863 48.1405C74.2627 51.7021 74.676 54.5739 75.8922 56.6038C77.1566 58.7142 79.2012 59.7732 81.8327 59.8434L81.886 57.8441C79.8301 57.7893 78.4684 57.0124 77.6078 55.5759C76.699 54.0589 76.2685 51.6729 76.4824 48.2658L74.4863 48.1405ZM81.8285 59.8433C85.1923 59.9473 87.9042 58.6078 89.8567 55.8742C91.7636 53.2046 92.9103 49.2614 93.4016 44.1743L91.4109 43.982C90.9334 48.9261 89.838 52.4595 88.2292 54.7117C86.6661 56.9001 84.5889 57.9277 81.8903 57.8442L81.8285 59.8433ZM93.4053 44.122L93.5928 39.8564L91.5947 39.7686L91.4072 44.0342L93.4053 44.122ZM93.5935 39.8347C93.6588 36.8959 93.1078 34.4328 91.8272 32.5475L90.1728 33.6713C91.1422 35.0985 91.6537 37.1041 91.594 39.7903L93.5935 39.8347ZM91.8392 32.5655C90.5518 30.5793 88.6106 29.556 86.154 29.4848L86.096 31.484C87.9519 31.5377 89.2607 32.2644 90.1608 33.6533L91.8392 32.5655ZM86.1579 29.4849C82.9621 29.3796 80.3189 30.7227 78.2962 33.3967L79.8913 34.6033C81.5561 32.4023 83.6004 31.4017 86.0921 31.4838L86.1579 29.4849ZM78.295 33.3983C76.3167 36.0247 75.1358 40.0587 74.6296 45.3421L76.6204 45.5329C77.1142 40.3788 78.2458 36.7878 79.8925 34.6017L78.295 33.3983ZM132.859 47.6875L131.864 47.7844L132.221 51.4528L133.767 48.1069L132.859 47.6875ZM145.984 19.2812V18.2812H145.345L145.077 18.8618L145.984 19.2812ZM163 19.2812L163.891 19.7353L164.632 18.2812H163V19.2812ZM133.281 77.5938L132.39 77.1397L132.385 77.1492L132.381 77.1588L133.281 77.5938ZM125.594 87.5312L125.021 86.7115L125.011 86.7187L125.594 87.5312ZM108.484 89.5938L107.49 89.4906L107.4 90.3535L108.242 90.5639L108.484 89.5938ZM109.656 78.2969V77.2969H108.755L108.662 78.1937L109.656 78.2969ZM116.453 77.3594L116.071 76.4351L116.063 76.4386L116.054 76.4423L116.453 77.3594ZM120.062 73.8438L120.937 74.3281L120.943 74.3174L120.949 74.3067L120.062 73.8438ZM122.266 69.625L123.152 70.0879L123.306 69.7937L123.253 69.466L122.266 69.625ZM114.156 19.2812V18.2812H112.982L113.169 19.4403L114.156 19.2812ZM130.094 19.2812L131.089 19.1843L131.001 18.2812H130.094V19.2812ZM133.767 48.1069L146.892 19.7007L145.077 18.8618L131.952 47.2681L133.767 48.1069ZM145.984 20.2812H163V18.2812H145.984V20.2812ZM162.109 18.8272L132.39 77.1397L134.172 78.0478L163.891 19.7353L162.109 18.8272ZM132.381 77.1588C130.206 81.6619 127.739 84.8122 125.021 86.7116L126.167 88.3509C129.261 86.1878 131.919 82.7131 134.182 78.0287L132.381 77.1588ZM125.011 86.7187C122.327 88.6437 119.101 89.625 115.281 89.625V91.625C119.462 91.625 123.11 90.5438 126.177 88.3438L125.011 86.7187ZM115.281 89.625C113.615 89.625 111.438 89.3015 108.727 88.6236L108.242 90.5639C111.03 91.261 113.385 91.625 115.281 91.625V89.625ZM109.479 89.6969L110.651 78.4001L108.662 78.1937L107.49 89.4906L109.479 89.6969ZM109.656 79.2969H111.438V77.2969H109.656V79.2969ZM111.438 79.2969C113.452 79.2969 115.264 78.9666 116.852 78.2764L116.054 76.4423C114.767 77.0021 113.236 77.2969 111.438 77.2969V79.2969ZM116.835 78.2836C118.535 77.5812 119.891 76.2189 120.937 74.3281L119.188 73.3594C118.297 74.9686 117.246 75.95 116.071 76.4351L116.835 78.2836ZM120.949 74.3067L123.152 70.0879L121.379 69.1621L119.176 73.3808L120.949 74.3067ZM123.253 69.466L115.144 19.1222L113.169 19.4403L121.278 69.784L123.253 69.466ZM114.156 20.2812H130.094V18.2812H114.156V20.2812ZM129.098 19.3782L131.864 47.7844L133.855 47.5906L131.089 19.1843L129.098 19.3782ZM152.828 62.875L151.828 62.9013L151.829 62.9028L152.828 62.875ZM167.219 56.7812L166.556 57.5303L166.564 57.5374L167.219 56.7812ZM169.75 62.3125L170.75 62.2858L170.75 62.2851L169.75 62.3125ZM167.359 68.2188L168.046 68.9462L168.053 68.9393L167.359 68.2188ZM153.828 62.8487C153.773 60.7505 154.476 59.0623 155.945 57.7025L154.586 56.235C152.68 58.0002 151.759 60.2495 151.828 62.9013L153.828 62.8487ZM155.945 57.7025C157.444 56.3148 159.215 55.625 161.312 55.625V53.625C158.722 53.625 156.462 54.4977 154.586 56.235L155.945 57.7025ZM161.312 55.625C163.398 55.625 165.127 56.2657 166.556 57.5302L167.881 56.0323C166.061 54.4218 163.852 53.625 161.312 53.625V55.625ZM166.564 57.5374C167.963 58.7475 168.695 60.3197 168.75 62.3399L170.75 62.2851C170.68 59.7428 169.725 57.6275 167.873 56.0251L166.564 57.5374ZM168.75 62.3392C168.806 64.4083 168.115 66.1038 166.666 67.4982L168.053 68.9393C169.916 67.1462 170.819 64.9042 170.75 62.2858L168.75 62.3392ZM166.673 67.4914C165.214 68.8681 163.433 69.5625 161.266 69.5625V71.5625C163.911 71.5625 166.192 70.6944 168.046 68.9461L166.673 67.4914ZM161.266 69.5625C159.11 69.5625 157.372 68.9173 155.982 67.6637L154.643 69.1488C156.44 70.7702 158.672 71.5625 161.266 71.5625V69.5625ZM155.982 67.6637C154.602 66.4191 153.883 64.8388 153.828 62.8472L151.829 62.9028C151.898 65.4112 152.835 67.5184 154.643 69.1488L155.982 67.6637Z" fill="black"/>
</g>
<defs>
<filter id="filter0_d" x="0.532951" y="0.75" width="174.22" height="98.875" filterUnits="userSpaceOnUse" color-interpolation-filters="sRGB">
<feFlood flood-opacity="0" result="BackgroundImageFix"/>
<feColorMatrix in="SourceAlpha" type="matrix" values="0 0 0 0 0 0 0 0 0 0 0 0 0 0 0 0 0 0 127 0" result="hardAlpha"/>
<feOffset dy="4"/>
<feGaussianBlur stdDeviation="2"/>
<feComposite in2="hardAlpha" operator="out"/>
<feColorMatrix type="matrix" values="0 0 0 0 0 0 0 0 0 0 0 0 0 0 0 0 0 0 0.25 0"/>
<feBlend mode="normal" in2="BackgroundImageFix" result="effect1_dropShadow"/>
<feBlend mode="normal" in="SourceGraphic" in2="effect1_dropShadow" result="shape"/>
</filter>
</defs>
</svg>
